<svg width="40" height="40" viewBox="0 0 40 40" fill="none" xmlns="http://www.w3.org/2000/svg">
<g clip-path="url(#clip0_148_60)">
<path d="M1.27 20.3325L1.13375 20.2675C0.832908 20.0977 0.590261 19.8411 0.437505 19.5312C0.218582 19.1508 0.10188 18.7202 0.0987549 18.2812L0.131255 18.0662C0.131255 17.7337 0.216255 17.435 0.366255 17.1487L0.502505 16.9012C0.567505 16.765 0.665005 16.6475 0.750005 16.5362C0.796193 16.4811 0.828104 16.4154 0.842926 16.345C0.857749 16.2746 0.855029 16.2016 0.835005 16.1325L0.750005 15.865C0.648628 15.5423 0.593907 15.2069 0.587505 14.8687L0.535005 14.6675C0.535005 14.2962 0.632505 13.9312 0.867505 13.665L1.03625 13.45C1.15375 13.2812 1.33625 13.1825 1.5375 13.1175C1.7 13.065 1.8175 12.8962 1.8375 12.7012L1.87 12.135C1.87 11.6862 2.085 11.2687 2.4175 10.9625L2.82125 10.6625C2.9 10.5837 2.98375 10.5 3.04875 10.3625C3.13375 10.265 3.1525 10.1275 3.13375 10.03C3.10125 9.86749 3.13375 9.81499 3.21875 9.79499C3.48625 9.89874 3.655 9.86624 3.7725 9.72999L3.9875 9.44999L4.58625 8.77999C4.67321 8.6891 4.73181 8.57486 4.75489 8.45121C4.77798 8.32757 4.76455 8.19988 4.71625 8.08374L4.52126 7.64749C4.48876 7.54999 4.52125 7.43249 4.60625 7.39999C4.82125 7.39999 4.97125 7.47874 5.03625 7.61499L5.10125 7.73249C5.205 7.93374 5.44 8.03249 5.6025 7.94749C5.907 7.8373 6.2287 7.78228 6.55251 7.78499H7.08626C7.45126 7.78499 7.75 7.53124 7.8225 7.14749C7.8875 6.68499 8.05 6.31374 8.285 6.06624C8.53875 5.77999 8.81876 5.56499 9.15126 5.39624C9.58751 5.16874 9.85501 4.82999 9.93876 4.39999C10.0563 3.86624 10.3363 3.48249 10.72 3.23499L11.99 2.51874L12.355 2.29749C12.57 2.16749 12.7713 1.99749 12.9413 1.79624L13.2738 1.39874C13.4165 1.23953 13.6017 1.12421 13.8075 1.06624C13.97 1.01374 14.205 0.981236 14.4063 1.00124L15.07 1.04624C15.4025 1.04624 15.6688 1.13124 15.9363 1.24749L16.105 1.33249C16.2738 1.39749 16.4375 1.36499 16.5213 1.24749L16.6713 1.16249L17.3875 0.413736C17.4609 0.334215 17.5529 0.274187 17.6552 0.239056C17.7575 0.203925 17.867 0.194795 17.9738 0.212486C18.1888 0.244986 18.4038 0.329986 18.605 0.433736C18.905 0.596236 19.1525 0.661236 19.4388 0.661236H19.6075C19.9725 0.661236 20.3363 0.713736 20.7075 0.797486L20.955 0.862486C21.0765 0.892338 21.2041 0.885994 21.322 0.844238C21.44 0.802482 21.5431 0.727137 21.6188 0.627486C21.6305 0.608003 21.6464 0.591392 21.6654 0.578869C21.6844 0.566346 21.706 0.55823 21.7285 0.555114C21.751 0.551998 21.774 0.553961 21.7956 0.56086C21.8173 0.56776 21.8372 0.57942 21.8538 0.594986C21.9063 0.627486 21.9188 0.659986 21.9388 0.712486C21.9713 1.04499 22.1738 1.29874 22.44 1.37624L22.7075 1.46124C22.9875 1.54624 23.2413 1.72874 23.4038 1.96249C23.5725 2.20999 23.775 2.46374 24.0025 2.62624L24.1713 2.79499C24.254 2.87526 24.3536 2.93617 24.4627 2.97335C24.5719 3.01052 24.6879 3.02304 24.8025 3.00999H25.785C26.1888 3.00999 26.5725 3.08124 26.9575 3.24499C27.3225 3.41374 27.7063 3.44624 28.0513 3.30999C28.4225 3.19874 28.8063 3.14749 29.19 3.19874L29.9063 3.30999C30.2388 3.34874 30.57 3.51124 30.7725 3.76624L30.8575 3.84499C31.02 4.01374 31.19 4.22874 31.3525 4.46374C31.4067 4.56624 31.4884 4.65162 31.5884 4.71034C31.6884 4.76906 31.8028 4.7988 31.9188 4.79624H32.9538C33.2075 4.79624 33.455 4.84874 33.6575 4.96499C33.8725 5.12749 34.055 5.29749 34.2238 5.46624L34.3863 5.68124C34.5875 5.91624 34.6863 6.22874 34.6725 6.56624C34.6725 6.83374 34.8738 7.06124 35.135 7.06124L35.4738 7.09999C35.7088 7.09999 35.9038 7.26249 36.0213 7.47749L36.19 7.81624L36.62 8.77999C36.6827 8.92779 36.7072 9.08898 36.6913 9.24874C36.6913 9.41124 36.7363 9.54874 36.8538 9.61374L37.0225 9.73124C37.1301 9.81171 37.2145 9.91918 37.2672 10.0428C37.3198 10.1663 37.3389 10.3017 37.3225 10.435L37.205 11.2162L37.1725 11.5487C37.1588 11.6426 37.1702 11.7384 37.2056 11.8265C37.2409 11.9145 37.299 11.9916 37.3738 12.05C37.6213 12.2125 37.7388 12.4337 37.7513 12.6812V13.0137C37.7513 13.1825 37.7188 13.385 37.5888 13.515C37.4776 13.6582 37.4181 13.8349 37.42 14.0162L37.4725 14.4C37.4725 14.6675 37.635 14.9012 37.805 15.0637C37.916 15.148 38.0089 15.2538 38.0782 15.3747C38.1476 15.4956 38.192 15.6291 38.2088 15.7675C38.2738 16.1837 38.2875 16.5162 38.2875 16.8487V17.2325C38.2875 17.3687 38.2875 17.5 38.34 17.63C38.3772 17.7524 38.4525 17.8597 38.555 17.9362L38.8875 18.1837C39.2263 18.3987 39.46 18.685 39.5913 19.0687C39.76 19.4337 39.8063 19.8175 39.8063 20.2012V20.3312C39.8063 20.6312 39.7738 20.95 39.6763 21.23C39.5919 21.5044 39.6078 21.8 39.7213 22.0637C39.8575 22.2987 39.9425 22.565 39.975 22.8512C40.04 23.1837 40.0075 23.515 39.89 23.7825L39.8575 23.9C39.7709 24.1043 39.6398 24.2866 39.4738 24.4337C39.305 24.6025 39.1413 24.7012 39.0438 24.8175C38.94 24.915 38.875 25.085 38.9263 25.2337L38.9713 25.4687C39.0563 25.8012 39.0563 26.1325 38.9713 26.4325V26.5687C38.9063 26.8162 38.8088 27.0312 38.7038 27.2325C38.5914 27.4444 38.4193 27.6187 38.2088 27.7337L37.955 27.8962C37.8936 27.9369 37.8431 27.992 37.808 28.0567C37.7729 28.1215 37.7543 28.1938 37.7538 28.2675C37.7549 28.426 37.697 28.5793 37.5913 28.6975L37.3375 29.0362C37.175 29.2512 36.96 29.4337 36.725 29.5312C36.5136 29.6786 36.3172 29.8465 36.1388 30.0325C35.9715 30.2278 35.8472 30.4561 35.7738 30.7025C35.751 30.8326 35.6829 30.9504 35.5815 31.0351C35.4802 31.1198 35.3521 31.1658 35.22 31.165H34.3213C34.0863 31.165 33.8725 31.3337 33.7738 31.5362C33.6797 31.7597 33.5501 31.9666 33.39 32.1487C33.2293 32.3172 33.1129 32.523 33.0513 32.7475C33.0188 32.9487 32.8563 33.0862 32.6863 33.015C32.5922 32.972 32.4855 32.9655 32.3869 32.9967C32.2883 33.0278 32.2048 33.0945 32.1525 33.1837C31.984 33.4763 31.7781 33.7456 31.54 33.985L31.4225 34.0825C31.2013 34.2512 30.9213 34.3825 30.6675 34.3825C30.3675 34.3825 30.2188 34.5187 30.1725 34.715C30.1199 34.9021 30.0852 35.0938 30.0688 35.2875C30.0331 35.475 29.9786 35.6584 29.9063 35.835L29.8213 35.9325C29.6525 36.1862 29.5213 36.4337 29.3525 36.6487L29.2875 36.7525C29.0725 37.0325 28.7863 37.2537 28.4538 37.3325C28.0994 37.4511 27.7274 37.5082 27.3538 37.5012H27.1188C27.028 37.5065 26.9398 37.5336 26.8617 37.5801C26.7836 37.6267 26.7178 37.6914 26.67 37.7687L26.5725 37.9375L26.4688 38.1325L26.2538 38.5037C26.1747 38.648 26.0678 38.7752 25.9393 38.878C25.8107 38.9808 25.6632 39.0571 25.505 39.1025C25.156 39.1877 24.7962 39.2206 24.4375 39.2L24.17 39.1675C23.935 39.1675 23.7213 39.1025 23.5063 38.9987C23.3375 38.9337 23.1025 38.9987 23.005 39.1675C22.8625 39.373 22.6566 39.5263 22.4188 39.6037L21.9175 39.7662C21.5731 39.8513 21.2132 39.8513 20.8688 39.7662L20.6013 39.6812C20.4334 39.6695 20.2716 39.6134 20.1325 39.5187C19.9808 39.4375 19.809 39.4015 19.6375 39.415L19.4163 39.4537C19.0838 39.4862 18.785 39.4537 18.485 39.3687L18.0363 39.265C17.8291 39.2003 17.6515 39.0643 17.535 38.8812C17.4834 38.7904 17.4111 38.713 17.324 38.6552C17.237 38.5974 17.1375 38.561 17.0338 38.5487H16.5C16.1675 38.5037 15.8688 38.3862 15.6663 38.1325L15.0025 37.5012L14.7675 37.3L14.4025 37.0325L14.1875 36.87C13.9277 36.6905 13.6284 36.5764 13.315 36.5375L12.3188 36.3687C12.215 36.3687 12.15 36.3362 12.0513 36.3162L11.6675 36.2312C11.4988 36.1987 11.335 36.0687 11.2188 35.8987C11.1213 35.7362 10.9325 35.6637 10.77 35.7362C10.4375 35.8662 10.1713 35.8987 9.90375 35.9512H9.66876C9.2446 35.9879 8.8182 35.9138 8.43125 35.7362C8.03375 35.5675 7.7675 35.32 7.52 35C7.41929 34.8525 7.29031 34.7266 7.14054 34.6294C6.99076 34.5322 6.82318 34.4657 6.6475 34.4337L6.185 34.3362C5.83893 34.2646 5.50971 34.1276 5.215 33.9325C4.8825 33.6975 4.71375 33.4837 4.58375 33.2162C4.44843 32.9576 4.3684 32.6737 4.34876 32.3825V32.2525C4.31626 31.9137 4.08126 31.615 3.76876 31.5362C3.43027 31.4375 3.11723 31.2665 2.85125 31.035C2.73353 30.9236 2.63986 30.7892 2.57601 30.6403C2.51217 30.4913 2.47949 30.3308 2.48 30.1687L2.51876 29.4325C2.51876 29.1462 2.43375 28.8987 2.2325 28.7162C2.03125 28.515 1.9 28.2675 1.9 28L1.8475 27.4012C1.80757 26.9624 1.73571 26.5271 1.6325 26.0987C1.535 25.715 1.685 25.33 1.9975 25.1487L2.115 25.0637C2.19928 25.007 2.25974 24.9213 2.28487 24.8228C2.31 24.7244 2.29803 24.6202 2.25125 24.53L2.115 24.3675C1.98018 24.2144 1.80725 24.0997 1.61375 24.035C1.48375 23.9962 1.45125 23.8662 1.45125 23.7812L1.61375 23.58C1.65965 23.5239 1.68473 23.4537 1.68473 23.3812C1.68473 23.3088 1.65965 23.2386 1.61375 23.1825C1.49239 23.0542 1.41681 22.8894 1.39875 22.7137L1.36625 21.5487C1.36625 21.3137 1.39875 21.08 1.46375 20.8525C1.535 20.6512 1.46375 20.4162 1.26875 20.3187L1.27 20.3325ZM17.7675 18.1312C17.885 18.0137 17.865 17.7987 17.7675 17.715C17.6107 17.5927 17.4802 17.4401 17.3838 17.2662L17.215 16.9987C17.1023 16.7885 16.9572 16.5975 16.785 16.4325L16.7525 16.4C16.5867 16.2656 16.4552 16.0938 16.3688 15.8987C16.327 15.8218 16.3051 15.7357 16.3051 15.6481C16.3051 15.5606 16.327 15.4744 16.3688 15.3975L16.4663 15.235C16.5731 15.0532 16.6312 14.847 16.635 14.6362V14.565C16.6264 14.3874 16.568 14.2158 16.4663 14.07C16.3927 13.9211 16.3382 13.7637 16.3038 13.6012V13.5037C16.2795 13.4026 16.2786 13.2972 16.3011 13.1956C16.3236 13.094 16.369 12.9989 16.4338 12.9175C16.57 12.7025 16.6688 12.5012 16.72 12.2537V12.215C16.7497 12.1242 16.7586 12.0279 16.7463 11.9332C16.734 11.8385 16.7007 11.7477 16.6488 11.6675C16.5981 11.5893 16.566 11.5006 16.5547 11.4081C16.5434 11.3156 16.5534 11.2218 16.5838 11.1337L16.7013 10.8012C16.7988 10.5012 16.955 10.235 17.15 9.99999L17.385 9.75249L17.5538 9.55124L17.6513 9.45374C17.7006 9.39952 17.7305 9.33047 17.7364 9.25741C17.7423 9.18435 17.7238 9.1114 17.6838 9.04999C17.5956 8.89871 17.5612 8.72204 17.5863 8.54874L17.6188 8.31374C17.6713 7.98124 17.7875 7.64999 18.0025 7.38249L18.0675 7.31749C18.315 6.98499 18.6338 6.76374 18.9988 6.64749L19.455 6.48499C19.65 6.41999 19.7875 6.19874 19.7875 5.98374C19.7875 5.71624 19.8725 5.48249 20.0213 5.26749L20.1 5.18249C20.2688 4.90249 20.4713 4.61624 20.6013 4.31624L20.7188 4.10124C20.7506 4.0505 20.7687 3.99234 20.7713 3.93249C20.7713 3.65249 20.6025 3.39874 20.335 3.38499L19.6063 3.33249C19.19 3.29999 18.7725 3.33249 18.3688 3.33249L16.9563 3.50124C16.735 3.50124 16.5725 3.66374 16.5525 3.89874C16.55 4.00953 16.5137 4.1169 16.4485 4.20649C16.3832 4.29607 16.2922 4.36358 16.1875 4.39999L15.5888 4.56249L15.42 4.61499L14.9188 4.78374C14.7354 4.84385 14.5666 4.94146 14.4231 5.07037C14.2795 5.19928 14.1644 5.35665 14.085 5.53249L13.955 5.74749C13.7834 6.11661 13.5041 6.42513 13.1538 6.63249C12.8213 6.84749 12.6525 7.19874 12.62 7.59624V7.76499C12.5875 8.09749 12.4838 8.42874 12.2875 8.66374L12.2025 8.79999C12.1364 8.87677 12.0934 8.97066 12.0783 9.07085C12.0633 9.17104 12.0769 9.27343 12.1175 9.36624C12.2025 9.56124 12.2538 9.78249 12.235 9.99749V10.8825C12.2324 10.9881 12.1998 11.0908 12.1409 11.1784C12.082 11.2661 11.9993 11.3352 11.9025 11.3775C11.7921 11.4174 11.6933 11.4841 11.615 11.5716C11.5367 11.6591 11.4813 11.7646 11.4538 11.8787L11.3688 12.2112C11.3333 12.3732 11.3459 12.5421 11.4049 12.6971C11.464 12.852 11.567 12.9864 11.7013 13.0837C11.9688 13.2787 12.1375 13.5787 12.2025 13.95V14.25C12.255 14.5825 12.4375 14.9137 12.7363 15.0837C13.0363 15.285 13.27 15.585 13.4 15.9175L13.485 16.185C13.5413 16.3498 13.6436 16.4951 13.7799 16.6036C13.9161 16.7121 14.0805 16.7794 14.2538 16.7975H14.3513C14.6513 16.7975 14.9175 16.9662 15.0875 17.2337C15.25 17.5012 15.5175 17.6825 15.8163 17.735L16.285 17.865C16.5713 17.95 16.8388 18.1 17.0538 18.3137L17.0863 18.3525C17.1746 18.4177 17.2845 18.4467 17.3935 18.4334C17.5026 18.4202 17.6024 18.3657 17.6725 18.2812L17.79 18.1512L17.7675 18.1312ZM19.6675 16.6012C19.83 16.6987 20 16.6462 20.065 16.4975L20.1175 16.4187C20.235 16.1837 20.385 15.95 20.5475 15.7487L20.8863 15.2475C20.9313 15.2475 20.9513 15.215 20.965 15.1825L21.3688 14.6487C21.5375 14.4862 21.7338 14.3687 21.9675 14.3687C22.0746 14.3693 22.1795 14.3379 22.2687 14.2787C22.358 14.2195 22.4276 14.1351 22.4688 14.0362C22.5338 13.8012 22.6313 13.58 22.8338 13.3987L22.9188 13.3012C23.0875 13.1325 23.2513 13.0475 23.42 12.9687C23.635 12.9362 23.8363 12.8975 24.0388 12.8975H24.5338C24.735 12.8975 24.905 12.8187 25.0025 12.65C25.1 12.4812 25.25 12.37 25.4188 12.285L25.5875 12.2137C25.855 12.1025 26.1538 12.0187 26.4538 11.9862L26.7863 11.9537C26.9875 11.9537 27.2025 11.9537 27.405 12.065C27.5675 12.1825 27.7888 12.1687 27.9525 12.0325L28.07 11.9675C28.3175 11.7987 28.6038 11.6675 28.9038 11.635H28.9363C29.2563 11.5788 29.582 11.5611 29.9063 11.5825H30.0688C30.4013 11.635 30.6875 11.7512 30.9025 11.9987L30.955 12.0637C31.1238 12.2325 31.385 12.37 31.6188 12.37H31.905C31.99 12.37 32.0675 12.3312 32.12 12.2525C32.1765 12.1927 32.253 12.1557 32.335 12.1487H32.5038C32.7388 12.1487 32.9525 12.2137 33.1675 12.285L33.4538 12.4025C33.7213 12.4812 34.0013 12.565 34.2875 12.5975H34.4888C34.6188 12.5975 34.7038 12.5187 34.7038 12.4025C34.71 12.2382 34.6692 12.0756 34.5863 11.9337L34.4688 11.6662C34.3388 11.4512 34.2338 11.2175 34.1363 11.0025L34.1038 10.9175C34.062 10.8406 34.0401 10.7544 34.0401 10.6669C34.0401 10.5793 34.062 10.4932 34.1038 10.4162V10.3312C34.1203 10.2648 34.1123 10.1946 34.0813 10.1336C34.0503 10.0725 33.9984 10.0246 33.935 9.99874H33.805C33.5417 9.91983 33.3082 9.76346 33.135 9.54999L32.9725 9.38124C32.8038 9.21874 32.705 8.96499 32.6338 8.71749C32.555 8.50249 32.3738 8.33374 32.1388 8.33374H31.435C31.3129 8.31656 31.1955 8.27549 31.0893 8.21285C30.9831 8.15022 30.8903 8.06727 30.8163 7.96874L30.7513 7.88374C30.6309 7.70962 30.5365 7.51886 30.4713 7.31749C30.3863 7.14874 30.2038 7.04999 30.035 7.10249L29.8338 7.16749C29.5013 7.28499 29.17 7.32999 28.8375 7.29749L28.57 7.26499C28.2838 7.26499 28.0163 7.14749 27.8013 6.98499L27.6325 6.86749C27.5057 6.76971 27.3655 6.69058 27.2163 6.63249C27.0538 6.56749 26.9163 6.59999 26.8188 6.71749L26.7338 6.81499C26.5647 6.99094 26.3432 7.10756 26.1025 7.14749L25.2038 7.19999C25.0337 7.20636 24.8728 7.27852 24.755 7.40124C24.626 7.5165 24.4684 7.59506 24.2988 7.62874H24.2663C24.1038 7.62874 23.9338 7.74624 23.7713 7.86374V7.89624C23.6923 7.97656 23.5981 8.04036 23.4943 8.08393C23.3904 8.1275 23.2789 8.14995 23.1663 8.14999L23.1013 8.18249C22.9 8.18249 22.7038 8.18249 22.5025 8.23499H22.3013C22.0213 8.27999 21.8 8.51499 21.735 8.81499L21.67 9.19874C21.6165 9.46013 21.5026 9.7054 21.3375 9.91499C21.1688 10.1162 20.9663 10.2475 20.7188 10.2475H20.4388C20.27 10.2862 20.1 10.4687 20.1325 10.6637C20.1713 10.95 20.1325 11.1975 20.0875 11.4512L20.0225 11.7312C19.9938 11.8498 19.9376 11.96 19.8583 12.0527C19.779 12.1455 19.679 12.2182 19.5663 12.265L19.4688 12.3175H19.4363C19.3388 12.3825 19.2675 12.5325 19.3513 12.65C19.4473 12.7984 19.4889 12.9756 19.4688 13.1512L19.4163 13.685C19.4056 13.8777 19.3499 14.0652 19.2538 14.2325C19.2059 14.3063 19.1778 14.3911 19.1721 14.4789C19.1664 14.5666 19.1833 14.6544 19.2213 14.7337L19.3838 15.0987C19.4693 15.2633 19.4881 15.4544 19.4363 15.6325C19.3792 15.793 19.357 15.9639 19.3713 16.1337C19.3713 16.3025 19.4688 16.4662 19.6063 16.5375L19.6675 16.6012ZM32.8325 28.6525C33.0013 28.815 33.2488 28.88 33.4513 28.75L33.7838 28.535C33.959 28.4144 34.0877 28.2375 34.1488 28.0337V28.0012L34.3175 27.5L34.415 27.3312L34.4863 27.1687L34.5513 27.0512C34.5817 26.9817 34.6274 26.9199 34.685 26.8703C34.7425 26.8208 34.8104 26.7848 34.8838 26.765L34.9488 26.7325C35.085 26.7 35.17 26.57 35.17 26.4325C35.17 26.27 35.2488 26.1325 35.3325 26.0162L35.4688 25.8987L35.8013 25.4687V25.4362C35.8985 25.2993 35.9669 25.1441 36.0025 24.98C36.0301 24.8116 36.0053 24.6388 35.9313 24.485L35.8988 24.4137C35.8404 24.2764 35.8009 24.1317 35.7813 23.9837L35.7363 23.515L35.6838 23.0137C35.6838 22.8512 35.7488 22.6812 35.8525 22.5187C35.9638 22.3825 36.0475 22.2125 36.12 22.05V21.985L36.1525 21.9525C36.185 21.7837 36.1 21.6137 35.9513 21.6137C35.7825 21.535 35.6188 21.3987 35.5675 21.1975L35.515 21.1C35.4333 20.8072 35.3896 20.5052 35.385 20.2012L35.4175 19.3675V19.315C35.4162 19.1825 35.363 19.0557 35.2693 18.962C35.1755 18.8683 35.0488 18.815 34.9163 18.8137H34.8838C34.7292 18.8198 34.5752 18.7933 34.4316 18.7361C34.2879 18.6788 34.1579 18.592 34.05 18.4812L33.92 18.3125L33.5813 17.935L33.1513 17.4337C32.9905 17.2016 32.8049 16.9878 32.5975 16.7962C32.435 16.6337 32.1813 16.4637 31.9338 16.4312L31.6013 16.3787C31.4004 16.3373 31.2087 16.2602 31.035 16.1512C30.8988 16.0475 30.7025 16.08 30.5663 16.2162L30.3513 16.4512L30.2475 16.5162C30.13 16.5487 30.02 16.4837 29.9675 16.3475C29.897 16.1407 29.9087 15.9147 30 15.7162V15.6187C30 15.5012 29.9025 15.4175 29.7988 15.45H29.5313C29.23 15.4611 28.9299 15.4056 28.6525 15.2875L28.4838 15.2162C28.3136 15.1317 28.1263 15.0872 27.9363 15.0862C27.7604 15.0823 27.5868 15.1273 27.435 15.2162L27.37 15.2687C27.1688 15.3966 26.9381 15.4707 26.7 15.4837H26.1525C25.9108 15.4813 25.6752 15.5591 25.4825 15.705C25.2683 15.8336 25.0323 15.9217 24.7863 15.965L24.3375 16.0362C24.1173 16.0827 23.9104 16.1784 23.7325 16.3162C23.57 16.485 23.335 16.5837 23.12 16.6487L23.035 16.6875C22.7617 16.7678 22.5262 16.9434 22.3713 17.1825L22.17 17.3837C22.1129 17.461 22.082 17.5545 22.082 17.6506C22.082 17.7467 22.1129 17.8402 22.17 17.9175C22.2675 18.0862 22.47 18.1325 22.6713 18.0862L22.9188 17.9825C23.0488 17.9375 23.205 17.9825 23.3163 18.0475C23.3724 18.0928 23.437 18.1266 23.5063 18.1467C23.5757 18.1669 23.6483 18.1731 23.72 18.165L24.1363 18.12C24.3713 18.12 24.605 18.12 24.8325 18.185C25.0863 18.27 25.3013 18.3537 25.5025 18.5175C25.6919 18.6713 25.9232 18.7645 26.1663 18.785C26.42 18.8175 26.6675 18.87 26.9025 18.9537L27.065 18.9862C27.2338 19.0387 27.3713 19.1487 27.4688 19.3187C27.5538 19.455 27.6313 19.6512 27.6313 19.82V19.8725C27.6313 20.0675 27.8 20.205 27.97 20.205H28.0675C28.335 20.205 28.6213 20.2375 28.9013 20.3225L29.0188 20.3675C29.1984 20.4339 29.3544 20.5517 29.4675 20.7062C29.6038 20.8687 29.6825 21.0387 29.735 21.2012L29.7875 21.4362C29.8325 21.69 29.8525 21.9375 29.8525 22.205V22.29C29.8525 22.4525 29.97 22.6225 30.1525 22.6875C30.3213 22.72 30.5175 22.7912 30.7063 22.8887L30.785 22.9212C31.0063 23.0512 31.2213 23.2212 31.3838 23.4225L31.4688 23.54C31.69 23.7875 31.8013 24.1062 31.8013 24.4187V24.5362C31.8013 24.79 31.7563 25.0375 31.6713 25.2725C31.6063 25.4737 31.6713 25.7087 31.8863 25.7737L32.0038 25.8587C32.2575 25.9562 32.4725 26.1387 32.635 26.3537C32.8038 26.6075 32.87 26.8875 32.87 27.1875V27.6887C32.8375 27.8575 32.7913 27.9887 32.7075 28.105C32.6238 28.2212 32.6225 28.3912 32.7075 28.5087L32.805 28.6712L32.8325 28.6525ZM22.1675 20.1175H22.135C22.0638 20.1175 22.0313 20.2025 22.05 20.2862L22.115 20.6187C22.18 20.8862 22.2125 21.1525 22.2513 21.42C22.2838 21.6875 22.4138 21.915 22.6163 22.0837H22.6813C22.8036 22.18 22.904 22.3013 22.9758 22.4395C23.0476 22.5776 23.0891 22.7295 23.0975 22.885V23.7187C23.065 23.8812 23.0975 24.0512 23.2013 24.1875L23.28 24.2662C23.4335 24.457 23.5223 24.6917 23.5338 24.9362L23.5788 25.8537C23.5788 26.0687 23.4488 26.2512 23.2463 26.2837L23.0838 26.3162C22.9663 26.3162 22.915 26.4525 22.915 26.57C22.915 26.7 22.9675 26.85 23.0125 26.9862V27.0187C23.065 27.1812 23.0838 27.3512 23.065 27.52L23 27.9687C22.9388 28.2947 22.8266 28.609 22.6675 28.9L22.55 29.1012C22.4776 29.2469 22.3583 29.3641 22.2113 29.4337C22.1323 29.4662 22.0615 29.5158 22.004 29.5789C21.9465 29.642 21.9038 29.7171 21.8788 29.7987L21.7488 30.3975C21.6542 30.7516 21.5072 31.0895 21.3125 31.4H21.28C21.0811 31.6726 20.8257 31.899 20.5313 32.0637L20.33 32.2L19.8288 32.4475C19.749 32.4843 19.6797 32.5406 19.6273 32.6111C19.5748 32.6816 19.541 32.7642 19.5288 32.8512L19.45 33.3987C19.3975 33.7312 19.2813 34.0175 19.0463 34.2325L18.8313 34.4862L18.5775 34.7337L18.33 35.0012C18.1288 35.2362 17.8288 35.3337 17.4963 35.2875L16.8975 35.17L16.3438 35.0987H16.1938C16.1288 35.17 16.115 35.2675 16.1613 35.3662C16.2788 35.5675 16.4613 35.705 16.6625 35.705L17.0275 35.77C17.1963 35.77 17.3988 35.855 17.5613 35.9325C17.73 36.05 17.8938 36.1337 18.095 36.1862H18.1275C18.3488 36.2712 18.5763 36.2837 18.7975 36.2712L19.045 36.2325C19.3313 36.2 19.5988 36.2325 19.8263 36.3362L20.0275 36.4012C20.1125 36.4337 20.2425 36.4012 20.3275 36.3162C20.4229 36.2231 20.5359 36.15 20.66 36.1012L20.7963 36.0687C21.0113 36.0037 21.2263 35.965 21.46 35.965H21.5963C21.7913 35.965 21.98 36.0037 22.1438 36.1012L22.2088 36.1337C22.3263 36.1862 22.4625 36.1337 22.5475 36.0362C22.5925 35.9187 22.71 35.8012 22.8275 35.7037L23.2438 35.4175L23.5113 35.2487L23.6475 35.17C23.8259 35.0555 24.0343 34.9967 24.2463 35.0012L24.845 34.9487C24.9615 34.934 25.071 34.8853 25.1601 34.8089C25.2492 34.7325 25.3139 34.6316 25.3463 34.5187C25.4113 34.265 25.5088 34.0175 25.6788 33.8025C25.8475 33.5812 26.0113 33.3987 26.18 33.2362C26.3675 33.0793 26.5998 32.9856 26.8438 32.9687H26.98C27.1097 32.9428 27.226 32.8716 27.3082 32.7679C27.3904 32.6642 27.4331 32.5347 27.4288 32.4025V31.2825C27.4613 31.12 27.5263 30.8987 27.6238 30.735L27.9625 30.2337L28.0925 30.065C28.1963 29.98 28.2613 29.87 28.3788 29.7325L28.5413 29.5175C28.645 29.3487 28.645 29.1337 28.5088 28.9837C28.3525 28.8073 28.2547 28.5868 28.2288 28.3525V28.2812C28.1893 28.003 28.2045 27.7198 28.2738 27.4475V27.3687C28.3588 27.1475 28.475 26.9325 28.6125 26.7312C28.6761 26.6534 28.7063 26.5536 28.6965 26.4535C28.6866 26.3535 28.6376 26.2614 28.56 26.1975L28.2738 25.95C28.045 25.7426 27.903 25.4564 27.8763 25.1487L27.8438 24.8162C27.8438 24.7125 27.8438 24.6012 27.8113 24.4837L27.7788 24.23C27.7575 24.0947 27.7075 23.9655 27.6323 23.851C27.5571 23.7365 27.4583 23.6395 27.3425 23.5662L27.225 23.5337C27.0398 23.4177 26.8802 23.265 26.7563 23.085C26.6263 22.9162 26.5613 22.6812 26.5088 22.4475L26.4563 22.1675C26.4563 22.0637 26.3913 21.9987 26.2938 21.9525L25.4925 21.6987C25.3238 21.6662 25.16 21.5362 25.0438 21.4187H25.0113C24.9075 21.2825 24.7438 21.2825 24.64 21.38L24.4775 21.5487C24.445 21.6012 24.4063 21.6137 24.36 21.6012C24.2563 21.6012 24.1913 21.5162 24.2238 21.4325C24.2425 21.3021 24.2264 21.169 24.1773 21.0468C24.1281 20.9245 24.0476 20.8174 23.9438 20.7362L23.7225 20.5675L23.2275 20.235C23.0913 20.1825 22.8888 20.235 22.8238 20.3975L22.7588 20.5012C22.7588 20.5337 22.7063 20.5462 22.6938 20.5662C22.6225 20.5662 22.525 20.5662 22.525 20.4812L22.4725 20.3962C22.4275 20.2987 22.31 20.2337 22.205 20.2012L22.1675 20.1175ZM20.1688 21.7837L20.0838 21.6987C19.9988 21.6337 19.915 21.6462 19.83 21.7312C19.7101 21.9295 19.62 22.1443 19.5625 22.3687V22.4012C19.5175 22.6162 19.315 22.7662 19.1138 22.7337H18.9188C18.8067 22.736 18.7001 22.7825 18.6221 22.863C18.5442 22.9436 18.5012 23.0517 18.5025 23.1637C18.5025 23.4637 18.3988 23.7687 18.2163 23.9975L18.1188 24.1012C17.9436 24.3126 17.7109 24.4685 17.4488 24.55L17.3188 24.5825C17.2337 24.6041 17.1569 24.6503 17.0978 24.7151C17.0387 24.78 16.9999 24.8608 16.9863 24.9475C16.9863 25.1162 16.8825 25.2862 16.7513 25.4162L16.5825 25.5462C16.3813 25.7675 16.0813 25.885 15.7813 25.9175L14.9475 26.0025C14.68 26.0025 14.4525 26.165 14.2838 26.4187C14.115 26.6662 13.8675 26.835 13.62 26.8675L13.2488 26.9C12.9711 26.9376 12.6889 26.9266 12.415 26.8675L12.2525 26.835L11.7963 26.7175C11.7261 26.6922 11.6497 26.6899 11.5782 26.7111C11.5067 26.7322 11.4439 26.7756 11.3988 26.835L11.23 27.05C11.1282 27.1686 10.9991 27.2607 10.854 27.3186C10.7088 27.3765 10.5517 27.3984 10.3963 27.3825L9.31501 27.2525C9.14626 27.2525 9.015 27.1675 8.86625 27.0837C8.6975 26.9862 8.58 26.8687 8.4625 26.7512L8.04625 26.25C8.00125 26.2175 7.91625 26.1975 7.83125 26.2175L7.59626 26.315L6.665 26.55C6.49625 26.6025 6.28125 26.55 6.1175 26.4525C5.94875 26.3162 5.74625 26.2837 5.545 26.2837H5.33C5.28119 26.2961 5.23537 26.3183 5.19529 26.3488C5.15521 26.3793 5.12168 26.4176 5.09672 26.4613C5.07175 26.5051 5.05585 26.5534 5.04998 26.6034C5.0441 26.6534 5.04836 26.7041 5.06251 26.7525L5.12751 27.085C5.18001 27.2537 5.16625 27.45 5.0825 27.6187C4.99875 27.7875 5.01751 27.9512 5.12751 28.12L5.23125 28.25C5.36125 28.4512 5.56375 28.6212 5.7325 28.7837C5.895 28.9525 6.065 29.1162 6.195 29.3375L6.44875 29.7862C6.5037 29.8976 6.58916 29.991 6.69517 30.0556C6.80118 30.1202 6.92337 30.1534 7.0475 30.1512C7.295 30.1512 7.54876 30.2362 7.74376 30.3987L8.24501 30.8675C8.38126 30.985 8.57751 31.0037 8.71376 30.9L8.79875 30.8675C8.89625 30.8675 8.96126 30.9325 8.96126 31.0362V31.1212C8.96126 31.3362 9.13 31.5375 9.345 31.6162L10.0938 31.785C10.3613 31.87 10.6275 31.9537 10.8813 32.1175H11.0113C11.0449 32.1174 11.0782 32.1102 11.1089 32.0962C11.1395 32.0823 11.1669 32.062 11.1891 32.0367C11.2113 32.0114 11.2279 31.9817 11.2378 31.9495C11.2476 31.9173 11.2505 31.8834 11.2463 31.85V31.27C11.2463 31.1012 11.3113 30.9312 11.4475 30.8662L11.5325 30.8337C11.6113 30.8662 11.695 30.9312 11.6625 31.0025V31.2825C11.6625 31.4975 11.7275 31.6987 11.8775 31.8487C11.9485 31.924 12.0398 31.9769 12.1404 32.0011C12.2409 32.0253 12.3463 32.0197 12.4438 31.985C12.645 31.9 12.8475 31.8812 13.0625 31.9L13.6813 31.9325C13.9813 31.965 14.2613 31.9325 14.515 31.815C14.815 31.7175 15.0625 31.58 15.2963 31.3987L15.3938 31.3337L15.895 30.885C16.0492 30.7263 16.26 30.635 16.4813 30.6312H17.145C17.3138 30.6089 17.4707 30.5319 17.5917 30.4121C17.7127 30.2922 17.7911 30.1361 17.815 29.9675L17.88 29.635C17.88 29.4137 17.9775 29.2187 18.1275 29.0487C18.2963 28.88 18.46 28.7812 18.6288 28.7162L18.83 28.6312C18.9712 28.5695 19.0977 28.4783 19.2009 28.3639C19.3042 28.2494 19.3818 28.1143 19.4288 27.9675L19.5263 27.5637C19.6113 27.2312 19.78 26.9 20.0275 26.685L20.06 26.6462C20.2613 26.4837 20.295 26.1512 20.1638 25.9175L20.1113 25.8C20.0529 25.7065 20.0177 25.6005 20.0086 25.4907C19.9995 25.3809 20.0167 25.2705 20.0588 25.1687C20.1438 24.9337 20.2275 24.7325 20.3588 24.5312L20.5275 24.2962C20.5925 24.1662 20.5925 23.9637 20.495 23.8475C20.3892 23.7162 20.3299 23.5536 20.3263 23.385L20.2938 23.15V22.5837C20.3185 22.3976 20.3006 22.2082 20.2413 22.03L20.1763 21.835L20.1688 21.7837ZM17.7863 20.5137V20.4687C17.7863 20.3 17.6825 20.2012 17.5513 20.2012H17.115C16.9604 20.2338 16.8008 20.2338 16.6463 20.2012H15.8975C15.5138 20.2012 15.1488 20.13 14.7838 20.0325L14.38 19.935L14.0475 19.8312L13.2988 19.5837C13.1066 19.5289 12.9283 19.4337 12.7757 19.3046C12.6231 19.1755 12.4997 19.0154 12.4138 18.835L12.3288 18.6662C12.2113 18.4187 11.9638 18.2825 11.7163 18.3337C11.43 18.3337 11.15 18.3337 10.8825 18.2037L10.6813 18.1187C10.2975 17.95 10.0175 17.6175 10.0175 17.1687L9.94625 16.72C9.90125 16.485 9.75125 16.2712 9.54875 16.1862C9.31446 16.0785 9.09024 15.9501 8.87876 15.8025L8.8 15.75C8.5365 15.5484 8.33366 15.2781 8.21376 14.9687L8.18125 14.8712C8.09548 14.6013 8.08425 14.3133 8.14875 14.0375L8.18125 13.9337C8.24625 13.7187 8.26625 13.5037 8.26625 13.27C8.26374 13.0617 8.17932 12.8628 8.03126 12.7162L7.79625 12.5012C7.66321 12.3938 7.55444 12.2593 7.4771 12.1068C7.39975 11.9543 7.35558 11.7871 7.3475 11.6162C7.30937 11.2606 7.3203 10.9014 7.38 10.5487V10.4512C7.37968 10.3632 7.34454 10.2788 7.28225 10.2165C7.21997 10.1542 7.13559 10.1191 7.0475 10.1187H6.99501C6.78001 10.1187 6.59751 10.2487 6.49376 10.4512C6.41082 10.672 6.28699 10.8751 6.12875 11.05L6.06375 11.135L5.5625 11.6362C5.39375 11.7987 5.295 12.0525 5.2625 12.3C5.2313 12.5538 5.16351 12.8018 5.06125 13.0362L5.02875 13.1212C4.9483 13.3198 4.81572 13.493 4.645 13.6225C4.56307 13.685 4.49562 13.7646 4.44729 13.8556C4.39896 13.9467 4.37089 14.0471 4.36501 14.15L4.3325 14.9187C4.3325 15.2512 4.28001 15.5887 4.16375 15.9212L4.13125 16.0512C4.08861 16.1519 4.08567 16.2649 4.123 16.3677C4.16034 16.4704 4.23519 16.5552 4.3325 16.605L5.02875 16.905L5.09375 16.9375C5.14625 16.9375 5.16501 16.97 5.17876 17.0225C5.23126 17.0875 5.17875 17.185 5.12625 17.185L4.96375 17.27C4.86625 17.3025 4.795 17.4062 4.7625 17.5237L4.73 17.6862V17.7187L4.56125 18.6562C4.52875 18.7862 4.52875 18.9362 4.52875 19.0862C4.52886 19.1505 4.54803 19.2134 4.58386 19.2668C4.61968 19.3202 4.67054 19.3618 4.73 19.3862L5.09501 19.555C5.26376 19.6525 5.46626 19.77 5.59626 19.8875L5.765 20.0237C5.81709 20.0918 5.88371 20.1473 5.96001 20.1862L6.03125 20.2512C6.14605 20.3529 6.22788 20.4865 6.26625 20.635L6.42876 21.3837C6.42876 21.585 6.5975 21.755 6.76125 21.8L7.02876 21.885C7.02876 21.885 7.08125 21.885 7.11375 21.9175L7.44625 22.0212C7.71375 22.1062 7.9475 22.2562 8.15 22.4512C8.35125 22.62 8.5475 22.835 8.71625 23.07L8.78126 23.135C8.91751 23.3037 9.11376 23.3887 9.31501 23.3362C9.51626 23.2837 9.73125 23.2712 9.94625 23.2712H10.2C10.3625 23.2712 10.5838 23.3162 10.7663 23.4337C10.9288 23.5375 11.15 23.6025 11.3463 23.6875H11.3988C11.4943 23.7257 11.5978 23.7398 11.7 23.7285C11.8023 23.7172 11.9002 23.6807 11.985 23.6225C12.1553 23.4883 12.3669 23.4171 12.5838 23.4212L13.365 23.4662C13.5338 23.4662 13.6975 23.4337 13.7813 23.3037H13.8138L14.1 23.0362L14.185 22.9512C14.251 22.8757 14.3319 22.8147 14.4227 22.7721C14.5136 22.7295 14.6122 22.7062 14.7125 22.7037H15.4675C15.6625 22.7037 15.8513 22.535 15.93 22.3712C15.9738 22.2841 16.037 22.2082 16.1148 22.1495C16.1927 22.0907 16.283 22.0507 16.3788 22.0325L16.7175 21.9675C16.8475 21.9675 16.965 21.85 17.0175 21.7C17.0573 21.5453 17.1437 21.4065 17.265 21.3025L17.5325 21.035C17.685 20.8942 17.7858 20.7062 17.8188 20.5012L17.7863 20.5137Z" fill="black"/>
</g>
<defs>
<clipPath id="clip0_148_60">
<rect width="40" height="40" fill="white"/>
</clipPath>
</defs>
</svg>
